# xmcd
#
# Track frame offsets:
#	150
#	11610
#	23104
#	33211
#	42512
#	53729
#	64606
#	78573
#	91155
#	104186
#
# Disc length: 1553 seconds
#
# Revision: 1
# Processed by: cddbd v1.5.1PL0 Copyright (c) Steve Scherf et al.
# Submitted via: dBpowerAMP V4.0
#
DISCID=79060f0a
DTITLE=Patsy Cline - Fingerprints
DYEAR=1900
DGENRE=Country
TTITLE0=Walkin' After Midnight
TTITLE1=I've Loved And Again
TTITLE2=Three Cigarettes In The Ashtray
TTITLE3=Love Me Love Me Honey Do
TTITLE4=The Heart You Break May Be Your Own
TTITLE5=Stop, Look And Listen
TTITLE6=Then You'll Know
TTITLE7=Yes I Understand
TTITLE8=If I Could See The World
TTITLE9=Fingerprints
EXTD=
EXTT0=
EXTT1=
EXTT2=
EXTT3=
EXTT4=
EXTT5=
EXTT6=
EXTT7=
EXTT8=
EXTT9=
PLAYORDER=
